 <svg  version="1.0" xmlns="http://www.w3.org/2000/svg"  width="900.000000pt" height="282.000000pt" viewBox="0 0 900.000000 282.000000"  preserveAspectRatio="xMidYMid meet">  <g transform="translate(0.000000,282.000000) scale(0.100000,-0.100000)" fill="#062cd9" stroke="none"> <path d="M6779 2676 c-2 -2 -120 -6 -262 -9 l-258 -5 -57 -53 c-79 -74 -150 -170 -192 -259 -48 -99 -80 -190 -80 -225 -1 -11 -7 -29 -15 -39 -8 -11 -15 -29 -15 -41 0 -12 -5 -26 -11 -32 -6 -6 -15 -29 -19 -50 -9 -45 -28 -98 -46 -135 -8 -14 -14 -35 -14 -46 0 -12 -4 -23 -9 -26 -5 -3 -12 -22 -16 -43 -4 -20 -13 -46 -21 -57 -8 -11 -14 -31 -14 -43 0 -12 -6 -37 -14 -55 -17 -42 -35 -94 -46 -133 -8 -28 -16 -53 -45 -135 -7 -19 -21 -62 -30 -95 -10 -33 -23 -71 -30 -85 -7 -14 -16 -42 -20 -62 l-7 -38 265 0 c193 0 268 3 273 12 4 6 11 28 15 47 9 43 55 183 75 229 8 18 14 41 14 52 0 19 18 66 46 123 8 16 14 41 14 56 0 15 7 36 15 47 8 10 15 27 15 36 0 29 43 50 82 40 39 -10 47 -37 25 -91 -25 -62 -39 -105 -46 -141 -4 -19 -12 -44 -18 -55 -6 -11 -18 -47 -28 -80 -9 -33 -22 -71 -27 -85 -27 -68 -57 -173 -52 -181 3 -5 68 -9 144 -9 157 0 153 -2 180 85 7 22 17 51 23 65 5 14 13 41 17 60 5 19 18 60 30 90 12 30 25 69 29 85 4 17 13 40 19 52 7 12 12 32 12 45 0 13 5 29 11 35 6 6 15 29 19 50 5 21 18 63 30 93 12 30 25 69 30 85 4 17 20 58 34 92 14 35 26 73 26 87 0 13 7 29 15 36 8 7 15 21 15 32 0 11 5 29 12 41 6 12 15 35 19 52 8 34 26 86 46 132 7 17 13 41 13 52 0 12 7 38 15 58 11 25 15 71 15 156 0 113 -1 122 -26 154 -24 32 -27 33 -98 33 -40 0 -75 -2 -77 -4z m-124 -270 c19 -14 19 -16 -9 -102 -16 -49 -34 -105 -42 -124 -7 -19 -20 -60 -29 -90 -10 -30 -24 -70 -31 -88 -8 -18 -14 -39 -14 -46 0 -27 -37 -47 -81 -44 l-44 3 2 40 c2 22 9 54 17 70 15 34 34 86 46 130 11 39 29 91 46 133 8 18 14 42 14 54 0 31 48 78 80 78 14 0 35 -6 45 -14z"/> <path d="M8370 1978 c-162 -4 -329 -8 -370 -10 l-74 -3 -19 -50 c-11 -27 -22 -65 -24 -83 l-5 -33 53 6 c30 4 59 8 66 10 7 2 20 -3 28 -12 17 -16 14 -50 -10 -108 -19 -45 -36 -96 -45 -134 -5 -18 -13 -38 -19 -44 -6 -6 -11 -23 -11 -37 0 -14 -7 -35 -15 -46 -8 -10 -15 -27 -15 -36 0 -10 -6 -32 -14 -50 -17 -40 -64 -181 -76 -226 -4 -18 -13 -39 -20 -47 -26 -32 0 -35 265 -35 l263 0 16 40 c9 22 16 45 16 51 0 6 6 25 14 42 7 18 21 59 31 92 10 33 24 72 31 87 8 14 14 38 14 51 0 14 4 28 9 32 5 3 13 20 16 38 4 17 13 46 20 62 6 17 20 57 29 90 10 33 24 72 32 87 8 14 14 37 14 50 0 43 28 58 108 58 80 0 79 -1 111 101 21 67 19 70 -56 67 -38 -2 -201 -6 -363 -10z"/> <path d="M7074 1963 c-157 -4 -167 -8 -184 -75 -5 -18 -18 -58 -30 -88 -12 -30 -25 -68 -30 -85 -9 -33 -27 -87 -43 -125 -5 -14 -13 -41 -18 -60 -11 -49 -58 -189 -75 -223 -8 -16 -14 -38 -14 -50 0 -12 -7 -31 -15 -41 -8 -11 -15 -31 -15 -46 0 -14 -6 -34 -14 -45 -7 -11 -15 -31 -18 -45 -3 -14 -9 -33 -13 -43 -7 -17 6 -17 247 -14 140 2 260 7 266 11 7 4 12 20 12 35 0 15 7 36 15 47 8 10 15 33 15 49 0 17 7 39 15 49 8 11 15 30 15 43 0 12 6 37 14 55 8 18 17 45 20 59 9 42 44 79 75 79 41 0 66 -22 57 -51 -4 -13 -11 -37 -16 -54 -5 -16 -20 -61 -34 -100 -14 -38 -26 -78 -26 -87 0 -10 -9 -35 -21 -57 -23 -46 -22 -76 4 -75 9 0 75 1 147 2 l129 2 21 46 c11 26 20 55 20 66 0 11 6 32 14 46 17 33 43 123 51 177 8 50 -8 95 -33 95 -19 0 -70 46 -61 55 3 2 30 15 60 29 120 53 214 219 185 328 -8 30 -22 49 -50 70 l-39 28 -246 -2 c-135 -1 -310 -4 -387 -5z m393 -158 c11 -31 -32 -180 -58 -196 -8 -5 -31 -9 -52 -9 -46 0 -57 20 -33 60 9 16 16 35 16 43 0 16 35 98 46 110 14 14 74 7 81 -8z"/> <path d="M4939 1942 c-109 -2 -160 -6 -166 -15 -5 -6 -31 -79 -57 -162 -26 -82 -54 -165 -62 -183 -8 -18 -14 -41 -14 -51 0 -24 -37 -108 -52 -117 -23 -14 -93 -12 -110 4 -22 18 -22 35 -4 70 17 35 36 88 46 132 8 36 24 82 45 135 35 86 56 165 48 178 -3 6 -72 7 -167 3 -88 -3 -215 -6 -281 -6 l-121 0 -17 -29 c-9 -16 -17 -40 -17 -53 0 -13 -4 -28 -8 -34 -5 -5 -19 -43 -31 -84 -22 -72 -32 -101 -61 -180 -7 -19 -15 -62 -17 -96 -7 -96 32 -147 142 -186 40 -15 81 -18 215 -18 91 1 185 5 209 9 82 16 107 -10 77 -81 -24 -58 -38 -101 -69 -211 -7 -26 -22 -53 -33 -61 -18 -13 -802 -19 -3576 -29 l-477 -2 -15 -27 c-9 -14 -16 -35 -16 -46 0 -11 -6 -33 -14 -49 -17 -35 -36 -88 -46 -133 -5 -19 -25 -80 -45 -135 -38 -105 -49 -141 -67 -215 -6 -25 -17 -55 -25 -67 -8 -12 -13 -37 -11 -55 l3 -33 195 2 c1187 11 1877 16 2880 20 994 4 1189 7 1207 19 12 8 29 14 37 14 24 0 113 95 119 127 2 15 15 53 27 83 12 30 25 69 30 85 5 17 18 55 30 85 12 30 24 66 27 80 3 14 9 30 13 35 5 6 13 29 19 53 17 61 42 74 143 72 215 -4 2126 11 2538 21 256 6 478 7 492 4 15 -4 84 -2 153 5 98 9 129 9 140 0 19 -16 19 -40 0 -76 -8 -16 -15 -37 -15 -47 0 -10 -5 -28 -12 -40 -6 -12 -15 -35 -19 -52 -19 -71 -67 -196 -75 -193 -12 4 -9 84 9 208 8 58 11 110 7 115 -7 8 -265 12 -372 6 -12 -1 -18 -9 -18 -25 0 -13 -6 -37 -14 -53 -18 -36 -36 -88 -46 -133 -9 -39 -26 -90 -45 -135 -7 -16 -21 -55 -30 -85 -9 -30 -23 -65 -31 -77 -8 -12 -14 -32 -14 -43 0 -20 4 -20 132 -18 l132 3 7 30 c4 17 12 44 17 60 6 17 18 57 28 90 9 33 21 69 27 80 6 11 13 33 16 48 3 15 11 27 16 25 14 -4 12 -87 -7 -212 -10 -60 -15 -113 -12 -118 6 -10 265 -10 281 0 6 4 14 21 18 37 4 17 12 46 20 65 7 19 21 62 30 95 9 33 23 72 31 87 8 14 14 35 14 47 0 11 6 35 14 53 15 37 28 74 58 168 11 36 26 79 33 95 7 17 18 47 25 69 15 47 3 59 -50 51 -66 -9 -1153 -25 -2130 -31 -536 -3 -1073 -7 -1192 -10 -148 -2 -219 0 -224 7 -7 11 8 69 31 124 16 38 34 91 45 130 5 17 14 46 20 65 24 72 32 96 40 125 11 40 30 94 45 130 8 17 16 41 18 55 3 14 11 41 17 60 7 19 18 51 25 70 7 19 18 51 25 70 7 19 15 49 17 65 3 17 11 37 18 45 7 8 15 30 18 47 5 25 2 34 -11 40 -9 5 -87 7 -173 5z m-556 -1168 c19 -6 23 -34 6 -51 -6 -6 -14 -26 -19 -44 -8 -32 -15 -53 -45 -139 -7 -19 -21 -62 -30 -95 -10 -33 -24 -74 -32 -92 -7 -17 -13 -40 -13 -51 0 -12 -8 -23 -18 -26 -10 -3 -128 -6 -262 -6 -135 1 -1018 -2 -1962 -6 -1676 -6 -1718 -6 -1718 12 0 11 7 28 15 38 8 11 15 30 15 42 0 12 6 35 14 51 14 29 31 76 46 128 48 163 60 196 80 212 11 8 93 12 285 12 402 0 3200 13 3202 15 6 4 421 4 436 0z"/> <path d="M3707 1921 c-60 -7 -73 -16 -82 -61 -3 -14 -10 -38 -16 -55 -6 -16 -14 -44 -18 -60 -4 -17 -13 -40 -19 -52 -7 -12 -12 -31 -12 -43 0 -11 -9 -39 -20 -61 -21 -40 -21 -40 -73 -37 -45 3 -52 6 -55 25 -2 13 4 33 12 45 9 12 16 34 16 48 0 15 7 35 15 46 8 10 15 27 15 37 0 10 6 30 14 45 8 15 17 49 21 75 l8 49 -249 -7 c-137 -4 -253 -11 -258 -16 -5 -4 -12 -27 -16 -51 -5 -24 -18 -68 -30 -98 -12 -30 -24 -66 -27 -80 -3 -14 -9 -30 -14 -35 -4 -6 -12 -29 -18 -50 -9 -38 -15 -58 -46 -145 -18 -50 -71 -224 -91 -300 -10 -36 -24 -78 -31 -93 -29 -58 -21 -61 118 -59 70 1 139 -2 153 -8 19 -7 41 -7 69 0 23 6 66 11 95 13 53 2 54 2 71 47 34 85 44 115 49 150 2 19 11 44 18 55 8 11 14 33 14 50 0 16 7 39 15 49 8 11 15 28 15 38 0 17 7 19 58 16 54 -3 57 -4 56 -28 -1 -14 -7 -40 -13 -57 -27 -80 -33 -100 -41 -136 -4 -21 -13 -44 -19 -50 -6 -6 -11 -22 -11 -34 0 -13 -7 -35 -16 -48 -30 -46 -18 -50 136 -48 156 3 180 11 180 62 1 14 7 37 15 51 8 14 14 35 15 46 0 12 7 35 15 50 9 19 15 57 15 107 l0 78 -45 45 c-38 37 -42 46 -28 50 44 14 63 25 98 55 54 48 125 162 125 204 0 11 7 29 15 39 8 11 15 31 15 45 0 14 7 34 15 45 10 13 11 24 4 37 -8 16 -21 19 -92 18 -45 -1 -108 -5 -140 -8z"/> <path d="M2525 1911 c-162 -5 -205 -9 -229 -23 -37 -21 -135 -117 -148 -143 -5 -11 -20 -40 -33 -65 -13 -25 -24 -53 -24 -62 -1 -10 -7 -32 -15 -50 -21 -51 -37 -99 -46 -138 -9 -37 -24 -82 -48 -142 -16 -40 -22 -196 -9 -238 4 -14 23 -35 43 -48 35 -22 39 -22 337 -20 293 3 302 4 305 23 2 11 11 34 19 52 8 17 13 42 11 55 -3 22 -5 23 -94 20 -64 -3 -94 0 -99 8 -7 11 2 53 26 125 6 17 15 44 19 60 5 17 19 57 31 90 11 33 25 76 29 95 10 44 58 186 74 220 11 24 16 25 118 28 l106 3 15 42 c25 68 30 104 15 109 -16 7 -137 6 -403 -1z"/> <path d="M601 1902 c-6 -2 -11 -13 -11 -25 0 -12 -7 -44 -15 -71 -8 -27 -15 -68 -15 -91 0 -24 -7 -62 -15 -85 -8 -23 -15 -68 -15 -99 -1 -31 -7 -74 -15 -96 -8 -22 -15 -57 -15 -78 0 -21 -4 -46 -10 -56 -5 -10 -14 -56 -19 -102 -5 -46 -14 -104 -21 -128 -6 -25 -10 -56 -8 -70 3 -23 6 -24 63 -24 33 0 165 1 293 2 231 1 233 1 242 24 6 12 14 29 19 37 4 8 23 47 41 85 27 59 81 168 111 225 4 8 17 36 29 62 12 27 26 50 31 54 5 3 9 16 9 28 0 13 7 29 15 36 8 7 15 17 15 23 0 15 130 276 141 283 17 10 10 62 -9 68 -20 7 -206 7 -243 0 -20 -4 -30 -16 -48 -62 -13 -31 -29 -72 -37 -89 -8 -18 -22 -50 -31 -70 -9 -21 -22 -50 -30 -65 -7 -14 -13 -34 -13 -43 0 -9 -6 -29 -13 -43 -8 -15 -21 -42 -30 -60 -9 -19 -17 -38 -17 -42 0 -21 -73 -160 -81 -154 -14 8 -10 56 6 84 8 14 14 44 15 68 0 23 7 59 15 79 8 19 15 54 15 77 1 22 7 52 15 66 8 14 14 41 15 61 0 20 7 53 16 74 8 20 14 56 12 78 l-3 42 -196 0 c-108 1 -201 -1 -208 -3z"/> <path d="M1571 1898 c-10 -3 -21 -19 -24 -35 -10 -51 -48 -169 -73 -231 -8 -18 -14 -43 -14 -55 0 -12 -7 -31 -15 -41 -8 -11 -15 -30 -15 -42 0 -12 -7 -35 -15 -50 -8 -16 -15 -38 -15 -50 0 -11 -7 -29 -15 -40 -8 -10 -15 -28 -15 -39 0 -18 -47 -170 -76 -245 -8 -19 -15 -46 -17 -60 l-2 -25 272 -3 272 -2 16 29 c8 17 15 41 15 54 0 12 4 27 10 33 5 5 14 30 19 54 5 25 14 59 19 75 6 17 18 55 27 85 9 30 22 71 30 90 7 19 21 62 30 95 10 33 22 71 28 85 5 14 13 41 17 60 8 36 24 84 46 135 22 54 37 115 30 123 -10 9 -510 10 -535 0z"/> <path d="M6875 733 c-49 -5 -75 -27 -75 -63 0 -14 -5 -31 -11 -37 -6 -6 -15 -29 -19 -50 -5 -21 -14 -54 -20 -73 -25 -70 -37 -106 -54 -160 -10 -30 -27 -78 -38 -107 -32 -78 -30 -79 118 -77 71 1 132 3 135 3 10 2 69 176 69 203 0 9 6 29 14 45 17 35 37 90 43 123 3 14 11 39 19 57 8 17 14 35 14 40 0 6 7 24 16 42 27 54 16 61 -83 59 -48 -1 -106 -3 -128 -5z"/> <path d="M7209 720 c-38 -20 -102 -106 -112 -150 -3 -14 -11 -41 -17 -60 -58 -163 -70 -206 -70 -254 0 -88 -4 -86 203 -86 163 0 185 2 211 19 34 23 84 94 92 130 3 15 12 41 20 59 8 18 14 42 14 52 0 11 4 28 10 38 24 42 43 112 47 173 7 99 7 99 -195 99 -145 -1 -172 -3 -203 -20z m245 -100 c-2 -39 -22 -107 -55 -190 -12 -30 -24 -72 -26 -92 -10 -80 -93 -117 -93 -41 0 19 6 49 13 66 22 51 38 99 48 142 6 22 14 44 20 49 5 6 9 19 9 29 0 10 8 32 17 48 13 23 24 29 43 27 22 -3 25 -8 24 -38z"/> <path d="M6026 720 l-149 -6 -46 -51 c-31 -34 -53 -71 -65 -110 -10 -32 -22 -67 -27 -78 -20 -48 -41 -113 -48 -150 -4 -22 -12 -49 -18 -60 -25 -48 -43 -97 -38 -106 4 -5 62 -9 131 -9 l125 0 17 43 c16 37 28 74 51 157 5 17 16 26 34 28 26 3 27 1 27 -40 0 -25 -10 -63 -25 -93 -13 -27 -25 -60 -25 -72 0 -21 3 -22 67 -19 55 3 70 7 85 26 10 12 18 29 18 37 0 17 26 102 46 151 8 18 14 43 14 55 0 13 7 32 15 43 8 10 15 30 15 44 0 14 7 34 15 44 9 12 15 42 15 78 0 49 -3 60 -22 72 -35 21 -52 23 -212 16z m82 -105 c1 -17 -6 -55 -17 -85 -16 -46 -24 -56 -46 -58 -15 -2 -31 0 -36 5 -15 16 28 145 56 165 20 15 40 3 43 -27z"/> <path d="M6364 722 c-20 -14 -42 -54 -37 -68 3 -8 13 -14 23 -14 43 0 49 -53 16 -140 -26 -69 -38 -106 -46 -140 -10 -42 -28 -95 -48 -135 -8 -17 -13 -40 -11 -50 4 -18 12 -20 119 -17 102 3 117 6 133 24 9 11 17 30 17 42 1 11 7 32 15 46 8 14 14 35 15 47 0 12 6 37 14 55 21 49 67 189 73 221 6 29 22 40 76 52 30 6 54 44 44 69 -6 14 -33 16 -199 16 -106 0 -198 -4 -204 -8z"/> <path d="M5348 702 c-28 -20 -21 -64 12 -72 19 -4 26 -13 28 -39 2 -18 -2 -39 -9 -47 -6 -8 -15 -31 -19 -52 -5 -20 -14 -53 -20 -72 -7 -19 -18 -51 -25 -70 -6 -19 -22 -64 -34 -100 -34 -96 -34 -97 -19 -102 7 -2 64 -2 126 0 l112 4 20 45 c11 25 20 55 20 67 1 11 7 32 15 46 8 14 15 36 15 50 0 14 7 34 15 44 8 11 15 32 15 46 0 14 7 35 15 46 8 10 15 30 15 43 0 42 38 90 76 97 25 5 39 15 50 36 9 16 12 33 9 36 -4 4 -95 7 -202 7 -148 0 -200 -3 -215 -13z"/> <path d="M4917 694 c-43 -23 -66 -51 -98 -114 -39 -80 -40 -140 -1 -170 24 -20 36 -22 113 -17 71 4 90 1 109 -13 l23 -18 -23 -61 c-17 -46 -28 -63 -46 -67 -12 -3 -28 -3 -33 1 -14 8 -14 48 0 62 7 7 9 18 6 26 -7 17 -121 29 -186 19 -43 -7 -45 -8 -65 -65 l-21 -58 21 -37 22 -37 162 -3 163 -3 37 40 c41 43 71 101 89 175 10 42 9 52 -7 80 -17 29 -23 31 -82 36 -65 5 -65 5 -63 35 2 47 26 105 46 111 25 8 35 -4 39 -46 l3 -35 56 -3 c77 -4 91 13 87 104 l-3 69 -160 2 c-128 2 -166 -1 -188 -13z"/> </g> </svg> 